<?xml version="1.0" standalone="no"?>
<!DOCTYPE svg PUBLIC "-//W3C//DTD SVG 20010904//EN"
 "http://www.w3.org/TR/2001/REC-SVG-20010904/DTD/svg10.dtd">
<svg version="1.0" xmlns="http://www.w3.org/2000/svg"
 width="225.000000pt" height="225.000000pt" viewBox="0 0 225.000000 225.000000"
 preserveAspectRatio="xMidYMid meet">
<metadata>
Created by potrace 1.16, written by Peter Selinger 2001-2019
</metadata>
<g transform="translate(0.000000,225.000000) scale(0.100000,-0.100000)"
fill="#000000" stroke="none">
<path d="M644 2130 c-67 -10 -91 -24 -98 -57 -3 -16 -15 -135 -27 -267 l-22
-238 -41 7 c-253 40 -273 39 -221 -15 49 -51 102 -81 182 -105 84 -24 89 -29
92 -111 1 -27 -3 -32 -29 -37 -33 -7 -38 -22 -14 -48 9 -10 14 -30 12 -51 l-3
-33 -22 38 c-13 21 -23 45 -23 53 0 8 -4 14 -10 14 -14 0 -12 -22 5 -63 8 -20
16 -69 17 -109 l2 -73 3 63 c4 66 17 79 34 35 7 -20 7 -38 0 -62 -12 -39 -7
-51 18 -51 11 0 25 -14 35 -34 19 -39 21 -121 4 -132 -15 -10 -38 24 -38 57 0
14 -7 32 -15 39 -19 16 -19 11 1 -58 10 -34 29 -69 49 -89 26 -27 36 -48 45
-99 16 -97 45 -164 100 -240 49 -65 50 -66 50 -35 0 17 -16 64 -36 103 -51
102 -63 139 -79 253 -8 55 -17 109 -21 119 -6 17 -4 18 17 10 42 -15 290 -11
324 6 43 22 82 86 87 142 8 78 59 114 92 66 12 -17 16 -48 16 -124 0 -89 3
-105 22 -129 l22 -28 -21 -36 c-11 -20 -34 -41 -50 -48 -25 -10 -36 -8 -74 9
-24 12 -54 20 -67 19 -15 -2 -25 5 -31 21 -10 23 -10 23 -10 1 -1 -26 43 -63
75 -63 12 0 34 -4 48 -10 16 -6 35 -6 50 0 13 5 27 6 31 2 3 -4 40 -7 80 -7
71 -1 74 0 58 17 -23 25 -8 35 18 12 14 -12 8 2 -14 35 -21 29 -37 57 -37 62
0 5 -5 9 -12 9 -9 0 -9 -3 0 -12 19 -19 14 -55 -8 -61 -18 -5 -20 0 -20 45 l0
50 45 -6 c32 -5 45 -4 45 5 0 7 10 9 26 6 15 -2 72 -1 128 3 55 5 102 7 103 6
1 -1 -20 -35 -46 -76 -74 -116 -80 -151 -56 -315 4 -22 -3 -15 -25 30 -16 33
-30 66 -30 73 0 26 -32 62 -55 62 -13 0 -36 5 -52 12 -15 6 -34 10 -41 9 -8
-1 -24 4 -36 13 -15 9 -27 11 -33 5 -5 -5 -34 -11 -63 -13 -30 -2 -56 -9 -58
-15 -3 -9 -8 -8 -21 2 -21 18 -71 31 -71 17 0 -5 -12 -13 -27 -16 -16 -4 -34
-12 -42 -17 -7 -6 -22 -16 -33 -22 -22 -11 -53 -64 -64 -110 l-7 -30 -7 30
c-4 17 -8 47 -9 67 -1 30 -4 36 -18 31 -13 -5 -15 -2 -11 15 4 12 2 22 -2 22
-4 0 -12 17 -18 38 -5 20 -10 29 -11 20 -1 -10 10 -52 24 -95 14 -43 26 -105
26 -138 2 -45 3 -51 7 -25 l5 35 7 -30 c3 -16 0 -53 -7 -82 -12 -47 -12 -56 4
-89 16 -33 38 -48 38 -25 0 5 3 13 8 17 4 4 7 14 7 22 0 7 10 27 21 44 15 20
22 49 25 90 2 34 6 64 10 67 6 6 430 18 457 13 17 -3 32 -38 42 -95 3 -21 14
-43 25 -50 11 -6 20 -19 20 -27 1 -35 20 21 22 64 1 24 5 43 9 40 13 -8 19 28
19 115 0 60 5 98 16 119 8 18 17 32 19 32 2 0 4 -21 3 -47 0 -27 3 -67 7 -90
5 -27 1 -60 -10 -98 -9 -32 -14 -59 -11 -62 3 -3 21 20 40 50 43 67 84 185 92
266 4 37 11 58 18 55 15 -5 31 6 44 33 11 20 9 22 -16 25 l-27 3 1 110 c2 125
17 215 45 263 24 42 24 58 -1 65 -19 5 -20 10 -14 59 4 29 8 55 10 57 1 1 38
9 81 17 133 23 290 89 280 117 -2 8 -54 13 -170 15 -190 3 -180 -2 -191 97
-23 223 -50 389 -66 405 -20 20 -58 24 -380 45 -237 15 -510 18 -596 5z m17
-331 c23 -23 23 -36 -2 -177 -15 -82 -14 -84 51 -102 74 -20 183 -29 360 -30
100 -1 179 -5 174 -10 -13 -12 -256 -18 -359 -9 -106 10 -277 52 -320 79 -20
13 -24 20 -13 20 23 0 58 47 58 77 0 13 5 34 12 46 6 12 10 46 9 75 -1 28 0
52 3 52 3 0 16 -10 27 -21z m-1 -405 c10 -4 11 -7 3 -12 -6 -4 17 -7 50 -8 34
-1 127 -5 207 -9 143 -8 467 12 594 36 27 5 55 9 62 9 16 0 18 -33 4 -60 -7
-13 -6 -27 2 -45 11 -24 9 -29 -12 -46 -23 -17 -46 -19 -302 -19 l-278 0 -1
33 c-2 30 -2 30 -6 5 -3 -21 -10 -28 -26 -28 -194 -4 -392 3 -399 13 -4 7 -8
44 -8 83 l0 72 48 -10 c26 -5 54 -11 62 -14z"/>
<path d="M1733 1263 c-18 -12 -23 -25 -23 -62 -1 -25 -7 -57 -15 -71 -8 -14
-14 -44 -15 -66 0 -23 -6 -56 -14 -74 -14 -35 -10 -73 7 -67 5 1 15 21 22 43
6 22 20 52 29 67 12 18 16 38 13 59 -3 18 -2 42 2 53 8 19 8 19 18 0 9 -16 12
-10 18 37 11 90 1 111 -42 81z"/>
<path d="M1068 483 c-73 -5 -98 -31 -98 -104 0 -42 -3 -49 -20 -49 -14 0 -20
7 -20 21 0 12 -5 19 -12 16 -7 -2 -19 3 -26 12 -11 14 -14 14 -32 -8 -11 -13
-20 -33 -20 -45 0 -12 -5 -27 -12 -34 -9 -9 -8 -20 1 -49 10 -31 22 -43 63
-62 28 -13 62 -34 77 -46 20 -17 37 -22 71 -21 25 1 51 6 58 10 7 4 16 5 21 1
5 -3 12 -1 16 5 4 6 23 7 46 4 26 -4 39 -3 39 5 0 6 7 11 15 11 8 0 15 4 15
10 0 5 11 12 24 16 14 3 32 14 42 25 9 10 23 19 31 19 7 0 13 7 13 15 0 8 4
15 8 15 4 0 16 13 25 30 21 35 15 90 -16 132 -20 27 -49 28 -45 0 2 -11 -10
-19 -42 -27 -28 -7 -46 -17 -48 -28 -6 -30 -21 -18 -28 21 -9 49 -32 88 -61
101 -13 6 -25 10 -26 9 -1 -1 -28 -3 -59 -5z"/>
</g>
</svg>
